# xmcd
#
# Track frame offsets: 
#        150
#        27100
#        46285
#        62705
#        84868
#        104908
#        122400
#        145108
#        177610
#        198008
#        215523
#        232895
#        250913
#        266725
#        284498
#        306355
#        328890
#
# Disc length: 4616 seconds
#
# Revision: 29
# Processed by: cddbd v1.5.2PL0 Copyright (c) Steve Scherf et al.
# Submitted via: ExactAudioCopy v0.99pb4
#
DISCID=fb120611
DTITLE=Sting - The Best of Sting 1984-1994:Fields of Gold
DYEAR=1998
DGENRE=Rock
TTITLE0=When We Dance
TTITLE1=If You Love Somebody Set Them Free
TTITLE2=Fields of Gold
TTITLE3=All This Time
TTITLE4=Englishman in New York
TTITLE5=Mad About You
TTITLE6=It's Probably Me
TTITLE7=They Dance Alone (Cueca Solo)
TTITLE8=If I Ever Lose My Faith in You
TTITLE9=Fragile
TTITLE10=We'll be Together
TTITLE11=Moon Over Bourbon Street
TTITLE12=Love is the Seventh Wave
TTITLE13=Russians
TTITLE14=Why Should I Cry for You?
TTITLE15=This Cowboy Song
TTITLE16=Fragil (Portuguese version)
EXTD=731454028622
EXTT0=
EXTT1=
EXTT2=
EXTT3=
EXTT4=
EXTT5=
EXTT6=
EXTT7=
EXTT8=
EXTT9=
EXTT10=
EXTT11=
EXTT12=
EXTT13=
EXTT14=
EXTT15=
EXTT16=
PLAYORDER=
